<svg width="22" height="23" viewBox="0 0 22 23" fill="none" xmlns="http://www.w3.org/2000/svg">
<path d="M6.01202 13.9667C6.01202 14.4267 6.01202 14.6577 6.09802 14.8647C6.18402 15.0717 6.34602 15.2347 6.67202 15.5607L6.94502 15.8337C7.27102 16.1597 7.43402 16.3217 7.64102 16.4077C7.84802 16.4937 8.07802 16.4937 8.53902 16.4937H9.39202C10.082 16.4937 10.428 16.4937 10.739 16.3647C11.049 16.2367 11.293 15.9927 11.782 15.5037L19.555 7.73065C20.298 6.98765 20.669 6.61665 20.84 6.20265C20.9535 5.92926 21.0119 5.63616 21.0119 5.34015C21.0119 5.04414 20.9535 4.75105 20.84 4.47765C20.669 4.06365 20.298 3.69265 19.555 2.95065C18.813 2.20765 18.442 1.83665 18.028 1.66565C17.7546 1.55218 17.4615 1.49377 17.1655 1.49377C16.8695 1.49377 16.5764 1.55218 16.303 1.66565C15.889 1.83665 15.518 2.20765 14.775 2.95065L7.00202 10.7237C6.51402 11.2127 6.26902 11.4567 6.14102 11.7667C6.01202 12.0767 6.01202 12.4237 6.01202 13.1137V13.9667Z" stroke="white" stroke-width="1.5" stroke-linecap="round" stroke-linejoin="round"/>
<path d="M5.93702 14.4937L1.44202 18.9897C1.30313 19.1253 1.19254 19.2872 1.11667 19.4659C1.0408 19.6446 1.00115 19.8365 1.00002 20.0307C0.998899 20.2248 1.03632 20.4172 1.11011 20.5968C1.18391 20.7764 1.29261 20.9395 1.42992 21.0768C1.56724 21.214 1.73042 21.3226 1.91002 21.3963C2.08963 21.47 2.28207 21.5074 2.47621 21.5062C2.67035 21.5049 2.86231 21.4652 3.04097 21.3892C3.21964 21.3133 3.38145 21.2026 3.51702 21.0637L8.01202 16.5687M5.51202 19.4937L3.01202 16.9937" stroke="white" stroke-width="1.5" stroke-linecap="round" stroke-linejoin="round"/>
<path d="M17.512 20.4937C16.1313 20.4937 15.012 19.3744 15.012 17.9937C15.012 16.6129 16.1313 15.4937 17.512 15.4937C18.8927 15.4937 20.012 16.6129 20.012 17.9937C20.012 19.3744 18.8927 20.4937 17.512 20.4937Z" stroke="white" stroke-width="1.5" stroke-linecap="round" stroke-linejoin="round"/>
</svg>
