<svg width="15" height="21" viewBox="0 0 15 21" fill="none" xmlns="http://www.w3.org/2000/svg">
<path d="M7.50028 8.83862L6.39368 12.244H2.81277L5.70982 14.3487L4.60255 17.7537L7.50028 15.6496L10.3973 17.7537L9.29005 14.3487L12.1871 12.244H8.60618L7.50028 8.83862ZM8.46778 13.9932L9.06505 15.8327L7.50028 14.6954L5.93414 15.8327L6.53278 13.9932L4.96732 12.8559H6.90232L7.50028 11.0163L8.09823 12.8559H10.0325L8.46778 13.9932Z" fill="white"/>
<path d="M11.8149 8.35875V5.39352C11.8149 5.26943 11.747 5.16511 11.6509 5.10034L15 0H8.57898L7.50034 1.61795L6.4217 0H0L3.34875 5.1C3.29932 5.13157 3.25851 5.17492 3.22995 5.22614C3.20139 5.27737 3.18598 5.33488 3.18511 5.39352V8.35875C1.6575 9.6092 0.681818 11.5084 0.681818 13.6364C0.681818 17.4017 3.73466 20.4545 7.5 20.4545C7.73227 20.4545 7.96182 20.443 8.18795 20.4198C11.6301 20.0751 14.3182 17.1699 14.3182 13.6364C14.3182 11.5084 13.3425 9.6092 11.8149 8.35875ZM10.5089 0.340909H12.6661L9.65761 4.8542L8.57898 3.23625L10.5089 0.340909ZM10.7362 6.47216L11.068 5.97511C11.0857 6.01773 11.0959 6.06409 11.0959 6.11284V7.55114C11.0949 7.64091 11.0585 7.72666 10.9947 7.78977C9.97193 7.17682 8.77909 6.81818 7.5 6.81818C6.26842 6.81845 5.06021 7.15447 4.00534 7.79011C3.9414 7.72692 3.90501 7.64103 3.90409 7.55114V6.11284C3.90455 6.06375 3.91386 6.01784 3.93205 5.97511L4.26375 6.4725L10.7362 6.47216ZM2.33386 0.340909H4.49114L8.35159 6.13125H6.19432L2.33386 0.340909ZM7.5 19.4318C4.29955 19.4318 1.70455 16.8372 1.70455 13.6364C1.70455 10.4356 4.29955 7.84091 7.5 7.84091C10.7005 7.84091 13.2955 10.4356 13.2955 13.6364C13.2955 16.8372 10.7005 19.4318 7.5 19.4318Z" fill="white"/>
</svg>
