<svg width="20" height="21" viewBox="0 0 20 21" fill="none" xmlns="http://www.w3.org/2000/svg">
<path d="M7 19.5H13M7 19.5V14.5M7 19.5H1.6C1.44087 19.5 1.28826 19.4368 1.17574 19.3243C1.06321 19.2117 1 19.0591 1 18.9V15.1C1 14.9409 1.06321 14.7883 1.17574 14.6757C1.28826 14.5632 1.44087 14.5 1.6 14.5H7M13 19.5V7.5M13 19.5H18.4C18.5591 19.5 18.7117 19.4368 18.8243 19.3243C18.9368 19.2117 19 19.0591 19 18.9V2.1C19 1.94087 18.9368 1.78826 18.8243 1.67574C18.7117 1.56321 18.5591 1.5 18.4 1.5H13.6C13.4409 1.5 13.2883 1.56321 13.1757 1.67574C13.0632 1.78826 13 1.94087 13 2.1V7.5M7 14.5V8.1C7 7.94087 7.06321 7.78826 7.17574 7.67574C7.28826 7.56321 7.44087 7.5 7.6 7.5H13" stroke="white" stroke-width="1.5"/>
</svg>
