<svg width="17" height="17" viewBox="0 0 17 17" fill="none" xmlns="http://www.w3.org/2000/svg">
<path d="M8.5 0C6.81886 0 5.17547 0.498516 3.77766 1.43251C2.37984 2.3665 1.29037 3.69402 0.647027 5.24719C0.00368277 6.80036 -0.164645 8.50943 0.163329 10.1583C0.491303 11.8071 1.30085 13.3217 2.4896 14.5104C3.67834 15.6992 5.1929 16.5087 6.84173 16.8367C8.49057 17.1646 10.1996 16.9963 11.7528 16.353C13.306 15.7096 14.6335 14.6202 15.5675 13.2223C16.5015 11.8245 17 10.1811 17 8.5C16.9974 6.24647 16.101 4.086 14.5075 2.49252C12.914 0.899029 10.7535 0.00264654 8.5 0ZM15.9908 8.12C13.4075 9.98416 11.5192 9.4 9.49667 8.4325C11.2825 7.20333 13.0192 5.665 12.9558 2.47083C13.8479 3.12953 14.5828 3.97784 15.1076 4.95468C15.6324 5.93151 15.934 7.01257 15.9908 8.12ZM11.9167 1.82417C12.2367 4.99083 10.7892 6.335 8.94083 7.6025C8.76833 5.44083 8.30583 3.16667 5.505 1.625C6.52177 1.1813 7.62441 0.969004 8.73324 1.00345C9.84206 1.03789 10.9294 1.31822 11.9167 1.82417ZM4.42834 2.20417C7.33334 3.5125 7.76917 5.43583 7.94334 7.66667C5.985 6.735 3.78334 6 1.0475 7.6525C1.17396 6.55111 1.54269 5.49138 2.12722 4.54938C2.71176 3.60738 3.4976 2.80648 4.42834 2.20417ZM1.01167 8.88C3.59917 7.01583 5.48334 7.6 7.50584 8.5675C5.7175 9.79666 3.98084 11.3333 4.04417 14.5292C3.15213 13.8705 2.41725 13.0222 1.89244 12.0453C1.36764 11.0685 1.06598 9.98743 1.00917 8.88H1.01167ZM5.08334 15.1758C4.76334 12.0092 6.21084 10.665 8.05917 9.3975C8.23083 11.5592 8.69333 13.8342 11.4942 15.375C10.4775 15.8186 9.37503 16.0308 8.26635 15.9964C7.15768 15.9619 6.0705 15.6817 5.08334 15.1758ZM12.5708 14.7958C9.66667 13.4875 9.23083 11.5642 9.05667 9.33333C10.17 9.86333 11.3625 10.3333 12.6867 10.3333C13.6917 10.3333 14.77 10.0642 15.9525 9.35083C15.8254 10.4516 15.4564 11.5106 14.8719 12.452C14.2874 13.3933 13.5019 14.1937 12.5717 14.7958H12.5708Z" fill="white"/>
</svg>
